<?xml version="1.0" encoding="UTF-8" standalone="no"?>
<!-- Created with Inkscape (http://www.inkscape.org/) -->

<svg
   version="1.1"
   id="svg2212"
   width="576"
   height="576"
   viewBox="0 0 576 576"
   sodipodi:docname="Figure1b.svg"
   inkscape:version="1.2.2 (b0a84865, 2022-12-01)"
   xmlns:inkscape="http://www.inkscape.org/namespaces/inkscape"
   xmlns:sodipodi="http://sodipodi.sourceforge.net/DTD/sodipodi-0.dtd"
   xmlns="http://www.w3.org/2000/svg"
   xmlns:svg="http://www.w3.org/2000/svg">
  <defs
     id="defs2216">
    <clipPath
       clipPathUnits="userSpaceOnUse"
       id="clipPath2252">
      <path
         d="M 48.44,49.71 H 304.31 V 424.03 H 48.44 Z"
         id="path2250" />
    </clipPath>
  </defs>
  <sodipodi:namedview
     id="namedview2214"
     pagecolor="#ffffff"
     bordercolor="#000000"
     borderopacity="0.25"
     inkscape:showpageshadow="2"
     inkscape:pageopacity="0.0"
     inkscape:pagecheckerboard="0"
     inkscape:deskcolor="#d1d1d1"
     showgrid="false"
     inkscape:zoom="1.1588694"
     inkscape:cx="419.37426"
     inkscape:cy="157.04962"
     inkscape:window-width="1920"
     inkscape:window-height="1280"
     inkscape:window-x="0"
     inkscape:window-y="0"
     inkscape:window-maximized="0"
     inkscape:current-layer="g2654">
    <inkscape:page
       x="0"
       y="0"
       id="page2218"
       width="576"
       height="576" />
  </sodipodi:namedview>
  <g
     id="g2220"
     inkscape:groupmode="layer"
     inkscape:label="Page 1"
     transform="matrix(1.3333333,0,0,-1.3333333,0,576)">
    <g
       id="g2222" />
    <g
       id="g2224" />
    <g
       id="g2226" />
    <g
       id="g2228" />
    <g
       id="g2230" />
    <g
       id="g2232" />
    <g
       id="g2234" />
    <g
       id="g2236" />
    <g
       id="g2238" />
    <g
       id="g2244" />
    <g
       id="g2246">
      <g
         id="g2248"
         clip-path="url(#clipPath2252)">
        <path
           d="M 48.44,49.71 H 304.31 V 424.03 H 48.44 Z"
           style="fill:#ffffff;fill-opacity:1;fill-rule:nonzero;stroke:none"
           id="path2254" />
        <path
           d="M 48.44,109.26 H 304.31"
           style="fill:none;stroke:#ebebeb;stroke-width:0.78;stroke-linecap:butt;stroke-linejoin:round;stroke-miterlimit:10;stroke-dasharray:none;stroke-opacity:1"
           id="path2256" />
        <path
           d="M 48.44,194.33 H 304.31"
           style="fill:none;stroke:#ebebeb;stroke-width:0.78;stroke-linecap:butt;stroke-linejoin:round;stroke-miterlimit:10;stroke-dasharray:none;stroke-opacity:1"
           id="path2258" />
        <path
           d="M 48.44,279.41 H 304.31"
           style="fill:none;stroke:#ebebeb;stroke-width:0.78;stroke-linecap:butt;stroke-linejoin:round;stroke-miterlimit:10;stroke-dasharray:none;stroke-opacity:1"
           id="path2260" />
        <path
           d="M 48.44,364.48 H 304.31"
           style="fill:none;stroke:#ebebeb;stroke-width:0.78;stroke-linecap:butt;stroke-linejoin:round;stroke-miterlimit:10;stroke-dasharray:none;stroke-opacity:1"
           id="path2262" />
        <path
           d="M 79.45,49.71 V 424.03"
           style="fill:none;stroke:#ebebeb;stroke-width:0.78;stroke-linecap:butt;stroke-linejoin:round;stroke-miterlimit:10;stroke-dasharray:none;stroke-opacity:1"
           id="path2264" />
        <path
           d="M 118.22,49.71 V 424.03"
           style="fill:none;stroke:#ebebeb;stroke-width:0.78;stroke-linecap:butt;stroke-linejoin:round;stroke-miterlimit:10;stroke-dasharray:none;stroke-opacity:1"
           id="path2266" />
        <path
           d="M 156.99,49.71 V 424.03"
           style="fill:none;stroke:#ebebeb;stroke-width:0.78;stroke-linecap:butt;stroke-linejoin:round;stroke-miterlimit:10;stroke-dasharray:none;stroke-opacity:1"
           id="path2268" />
        <path
           d="M 195.76,49.71 V 424.03"
           style="fill:none;stroke:#ebebeb;stroke-width:0.78;stroke-linecap:butt;stroke-linejoin:round;stroke-miterlimit:10;stroke-dasharray:none;stroke-opacity:1"
           id="path2270" />
        <path
           d="M 234.53,49.71 V 424.03"
           style="fill:none;stroke:#ebebeb;stroke-width:0.78;stroke-linecap:butt;stroke-linejoin:round;stroke-miterlimit:10;stroke-dasharray:none;stroke-opacity:1"
           id="path2272" />
        <path
           d="M 273.3,49.71 V 424.03"
           style="fill:none;stroke:#ebebeb;stroke-width:0.78;stroke-linecap:butt;stroke-linejoin:round;stroke-miterlimit:10;stroke-dasharray:none;stroke-opacity:1"
           id="path2274" />
        <path
           d="M 48.44,66.72 H 304.31"
           style="fill:none;stroke:#ebebeb;stroke-width:1.55;stroke-linecap:butt;stroke-linejoin:round;stroke-miterlimit:10;stroke-dasharray:none;stroke-opacity:1"
           id="path2276" />
        <path
           d="M 48.44,151.8 H 304.31"
           style="fill:none;stroke:#ebebeb;stroke-width:1.55;stroke-linecap:butt;stroke-linejoin:round;stroke-miterlimit:10;stroke-dasharray:none;stroke-opacity:1"
           id="path2278" />
        <path
           d="M 48.44,236.87 H 304.31"
           style="fill:none;stroke:#ebebeb;stroke-width:1.55;stroke-linecap:butt;stroke-linejoin:round;stroke-miterlimit:10;stroke-dasharray:none;stroke-opacity:1"
           id="path2280" />
        <path
           d="M 48.44,321.94 H 304.31"
           style="fill:none;stroke:#ebebeb;stroke-width:1.55;stroke-linecap:butt;stroke-linejoin:round;stroke-miterlimit:10;stroke-dasharray:none;stroke-opacity:1"
           id="path2282" />
        <path
           d="M 48.44,407.02 H 304.31"
           style="fill:none;stroke:#ebebeb;stroke-width:1.55;stroke-linecap:butt;stroke-linejoin:round;stroke-miterlimit:10;stroke-dasharray:none;stroke-opacity:1"
           id="path2284" />
        <path
           d="M 60.07,49.71 V 424.03"
           style="fill:none;stroke:#ebebeb;stroke-width:1.55;stroke-linecap:butt;stroke-linejoin:round;stroke-miterlimit:10;stroke-dasharray:none;stroke-opacity:1"
           id="path2286" />
        <path
           d="M 98.84,49.71 V 424.03"
           style="fill:none;stroke:#ebebeb;stroke-width:1.55;stroke-linecap:butt;stroke-linejoin:round;stroke-miterlimit:10;stroke-dasharray:none;stroke-opacity:1"
           id="path2288" />
        <path
           d="M 137.61,49.71 V 424.03"
           style="fill:none;stroke:#ebebeb;stroke-width:1.55;stroke-linecap:butt;stroke-linejoin:round;stroke-miterlimit:10;stroke-dasharray:none;stroke-opacity:1"
           id="path2290" />
        <path
           d="M 176.38,49.71 V 424.03"
           style="fill:none;stroke:#ebebeb;stroke-width:1.55;stroke-linecap:butt;stroke-linejoin:round;stroke-miterlimit:10;stroke-dasharray:none;stroke-opacity:1"
           id="path2292" />
        <path
           d="M 215.14,49.71 V 424.03"
           style="fill:none;stroke:#ebebeb;stroke-width:1.55;stroke-linecap:butt;stroke-linejoin:round;stroke-miterlimit:10;stroke-dasharray:none;stroke-opacity:1"
           id="path2294" />
        <path
           d="M 253.91,49.71 V 424.03"
           style="fill:none;stroke:#ebebeb;stroke-width:1.55;stroke-linecap:butt;stroke-linejoin:round;stroke-miterlimit:10;stroke-dasharray:none;stroke-opacity:1"
           id="path2296" />
        <path
           d="M 292.68,49.71 V 424.03"
           style="fill:none;stroke:#ebebeb;stroke-width:1.55;stroke-linecap:butt;stroke-linejoin:round;stroke-miterlimit:10;stroke-dasharray:none;stroke-opacity:1"
           id="path2298" />
        <path
           d="m 288.06,105.01 c 0,2.54 2.08,4.62 4.62,4.62 2.54,0 4.62,-2.08 4.62,-4.62 0,-2.54 -2.08,-4.62 -4.62,-4.62 -2.54,0 -4.62,2.08 -4.62,4.62"
           style="fill:#f8766d;fill-opacity:0.502;fill-rule:nonzero;stroke:#f8766d;stroke-width:0.71;stroke-linecap:round;stroke-linejoin:round;stroke-miterlimit:10;stroke-dasharray:none;stroke-opacity:0.502"
           id="path2300" />
        <path
           d="m 249.29,151.8 c 0,2.54 2.08,4.62 4.62,4.62 2.54,0 4.62,-2.08 4.62,-4.62 0,-2.54 -2.08,-4.62 -4.62,-4.62 -2.54,0 -4.62,2.08 -4.62,4.62"
           style="fill:#f8766d;fill-opacity:0.502;fill-rule:nonzero;stroke:#f8766d;stroke-width:0.71;stroke-linecap:round;stroke-linejoin:round;stroke-miterlimit:10;stroke-dasharray:none;stroke-opacity:0.502"
           id="path2302" />
        <path
           d="m 210.52,190.08 c 0,2.54 2.08,4.62 4.62,4.62 2.55,0 4.63,-2.08 4.63,-4.62 0,-2.54 -2.08,-4.62 -4.63,-4.62 -2.54,0 -4.62,2.08 -4.62,4.62"
           style="fill:#f8766d;fill-opacity:0.502;fill-rule:nonzero;stroke:#f8766d;stroke-width:0.71;stroke-linecap:round;stroke-linejoin:round;stroke-miterlimit:10;stroke-dasharray:none;stroke-opacity:0.502"
           id="path2304" />
        <path
           d="m 171.75,228.36 c 0,2.55 2.08,4.63 4.63,4.63 2.54,0 4.62,-2.08 4.62,-4.63 0,-2.54 -2.08,-4.62 -4.62,-4.62 -2.55,0 -4.63,2.08 -4.63,4.62"
           style="fill:#f8766d;fill-opacity:0.502;fill-rule:nonzero;stroke:#f8766d;stroke-width:0.71;stroke-linecap:round;stroke-linejoin:round;stroke-miterlimit:10;stroke-dasharray:none;stroke-opacity:0.502"
           id="path2306" />
        <path
           d="m 132.98,270.9 c 0,2.54 2.08,4.62 4.63,4.62 2.54,0 4.62,-2.08 4.62,-4.62 0,-2.54 -2.08,-4.62 -4.62,-4.62 -2.55,0 -4.63,2.08 -4.63,4.62"
           style="fill:#f8766d;fill-opacity:0.502;fill-rule:nonzero;stroke:#f8766d;stroke-width:0.71;stroke-linecap:round;stroke-linejoin:round;stroke-miterlimit:10;stroke-dasharray:none;stroke-opacity:0.502"
           id="path2308" />
        <path
           d="m 94.22,326.2 c 0,2.54 2.08,4.62 4.62,4.62 2.54,0 4.62,-2.08 4.62,-4.62 0,-2.55 -2.08,-4.63 -4.62,-4.63 -2.54,0 -4.62,2.08 -4.62,4.63"
           style="fill:#f8766d;fill-opacity:0.502;fill-rule:nonzero;stroke:#f8766d;stroke-width:0.71;stroke-linecap:round;stroke-linejoin:round;stroke-miterlimit:10;stroke-dasharray:none;stroke-opacity:0.502"
           id="path2310" />
        <path
           d="m 55.45,364.48 c 0,2.54 2.08,4.62 4.62,4.62 2.54,0 4.62,-2.08 4.62,-4.62 0,-2.54 -2.08,-4.62 -4.62,-4.62 -2.54,0 -4.62,2.08 -4.62,4.62"
           style="fill:#f8766d;fill-opacity:0.502;fill-rule:nonzero;stroke:#f8766d;stroke-width:0.71;stroke-linecap:round;stroke-linejoin:round;stroke-miterlimit:10;stroke-dasharray:none;stroke-opacity:0.502"
           id="path2312" />
        <path
           d="m 288.06,109.26 c 0,2.54 2.08,4.62 4.62,4.62 2.54,0 4.62,-2.08 4.62,-4.62 0,-2.54 -2.08,-4.62 -4.62,-4.62 -2.54,0 -4.62,2.08 -4.62,4.62"
           style="fill:#f8766d;fill-opacity:0.502;fill-rule:nonzero;stroke:#f8766d;stroke-width:0.71;stroke-linecap:round;stroke-linejoin:round;stroke-miterlimit:10;stroke-dasharray:none;stroke-opacity:0.502"
           id="path2314" />
        <path
           d="m 249.29,151.8 c 0,2.54 2.08,4.62 4.62,4.62 2.54,0 4.62,-2.08 4.62,-4.62 0,-2.54 -2.08,-4.62 -4.62,-4.62 -2.54,0 -4.62,2.08 -4.62,4.62"
           style="fill:#f8766d;fill-opacity:0.502;fill-rule:nonzero;stroke:#f8766d;stroke-width:0.71;stroke-linecap:round;stroke-linejoin:round;stroke-miterlimit:10;stroke-dasharray:none;stroke-opacity:0.502"
           id="path2316" />
        <path
           d="m 210.52,194.33 c 0,2.55 2.08,4.63 4.62,4.63 2.55,0 4.63,-2.08 4.63,-4.63 0,-2.54 -2.08,-4.62 -4.63,-4.62 -2.54,0 -4.62,2.08 -4.62,4.62"
           style="fill:#f8766d;fill-opacity:0.502;fill-rule:nonzero;stroke:#f8766d;stroke-width:0.71;stroke-linecap:round;stroke-linejoin:round;stroke-miterlimit:10;stroke-dasharray:none;stroke-opacity:0.502"
           id="path2318" />
        <path
           d="m 171.75,232.62 c 0,2.54 2.08,4.62 4.63,4.62 2.54,0 4.62,-2.08 4.62,-4.62 0,-2.55 -2.08,-4.63 -4.62,-4.63 -2.55,0 -4.63,2.08 -4.63,4.63"
           style="fill:#f8766d;fill-opacity:0.502;fill-rule:nonzero;stroke:#f8766d;stroke-width:0.71;stroke-linecap:round;stroke-linejoin:round;stroke-miterlimit:10;stroke-dasharray:none;stroke-opacity:0.502"
           id="path2320" />
        <path
           d="m 132.98,275.15 c 0,2.54 2.08,4.63 4.63,4.63 2.54,0 4.62,-2.09 4.62,-4.63 0,-2.54 -2.08,-4.62 -4.62,-4.62 -2.55,0 -4.63,2.08 -4.63,4.62"
           style="fill:#f8766d;fill-opacity:0.502;fill-rule:nonzero;stroke:#f8766d;stroke-width:0.71;stroke-linecap:round;stroke-linejoin:round;stroke-miterlimit:10;stroke-dasharray:none;stroke-opacity:0.502"
           id="path2322" />
        <path
           d="m 94.22,317.69 c 0,2.54 2.08,4.62 4.62,4.62 2.54,0 4.62,-2.08 4.62,-4.62 0,-2.54 -2.08,-4.62 -4.62,-4.62 -2.54,0 -4.62,2.08 -4.62,4.62"
           style="fill:#f8766d;fill-opacity:0.502;fill-rule:nonzero;stroke:#f8766d;stroke-width:0.71;stroke-linecap:round;stroke-linejoin:round;stroke-miterlimit:10;stroke-dasharray:none;stroke-opacity:0.502"
           id="path2324" />
        <path
           d="m 55.45,351.72 c 0,2.54 2.08,4.62 4.62,4.62 2.54,0 4.62,-2.08 4.62,-4.62 0,-2.54 -2.08,-4.62 -4.62,-4.62 -2.54,0 -4.62,2.08 -4.62,4.62"
           style="fill:#f8766d;fill-opacity:0.502;fill-rule:nonzero;stroke:#f8766d;stroke-width:0.71;stroke-linecap:round;stroke-linejoin:round;stroke-miterlimit:10;stroke-dasharray:none;stroke-opacity:0.502"
           id="path2326" />
        <path
           d="m 288.06,92.25 c 0,2.54 2.08,4.62 4.62,4.62 2.54,0 4.62,-2.08 4.62,-4.62 0,-2.55 -2.08,-4.63 -4.62,-4.63 -2.54,0 -4.62,2.08 -4.62,4.63"
           style="fill:#f8766d;fill-opacity:0.502;fill-rule:nonzero;stroke:#f8766d;stroke-width:0.71;stroke-linecap:round;stroke-linejoin:round;stroke-miterlimit:10;stroke-dasharray:none;stroke-opacity:0.502"
           id="path2328" />
        <path
           d="m 249.29,134.78 c 0,2.55 2.08,4.63 4.62,4.63 2.54,0 4.62,-2.08 4.62,-4.63 0,-2.54 -2.08,-4.62 -4.62,-4.62 -2.54,0 -4.62,2.08 -4.62,4.62"
           style="fill:#f8766d;fill-opacity:0.502;fill-rule:nonzero;stroke:#f8766d;stroke-width:0.71;stroke-linecap:round;stroke-linejoin:round;stroke-miterlimit:10;stroke-dasharray:none;stroke-opacity:0.502"
           id="path2330" />
        <path
           d="m 210.52,177.32 c 0,2.54 2.08,4.62 4.62,4.62 2.55,0 4.63,-2.08 4.63,-4.62 0,-2.54 -2.08,-4.62 -4.63,-4.62 -2.54,0 -4.62,2.08 -4.62,4.62"
           style="fill:#f8766d;fill-opacity:0.502;fill-rule:nonzero;stroke:#f8766d;stroke-width:0.71;stroke-linecap:round;stroke-linejoin:round;stroke-miterlimit:10;stroke-dasharray:none;stroke-opacity:0.502"
           id="path2332" />
        <path
           d="m 171.75,226.24 c 0,2.54 2.08,4.62 4.63,4.62 2.54,0 4.62,-2.08 4.62,-4.62 0,-2.55 -2.08,-4.63 -4.62,-4.63 -2.55,0 -4.63,2.08 -4.63,4.63"
           style="fill:#f8766d;fill-opacity:0.502;fill-rule:nonzero;stroke:#f8766d;stroke-width:0.71;stroke-linecap:round;stroke-linejoin:round;stroke-miterlimit:10;stroke-dasharray:none;stroke-opacity:0.502"
           id="path2334" />
        <path
           d="m 132.98,279.41 c 0,2.54 2.08,4.62 4.63,4.62 2.54,0 4.62,-2.08 4.62,-4.62 0,-2.55 -2.08,-4.63 -4.62,-4.63 -2.55,0 -4.63,2.08 -4.63,4.63"
           style="fill:#f8766d;fill-opacity:0.502;fill-rule:nonzero;stroke:#f8766d;stroke-width:0.71;stroke-linecap:round;stroke-linejoin:round;stroke-miterlimit:10;stroke-dasharray:none;stroke-opacity:0.502"
           id="path2336" />
        <path
           d="m 94.22,313.44 c 0,2.54 2.08,4.62 4.62,4.62 2.54,0 4.62,-2.08 4.62,-4.62 0,-2.55 -2.08,-4.63 -4.62,-4.63 -2.54,0 -4.62,2.08 -4.62,4.63"
           style="fill:#f8766d;fill-opacity:0.502;fill-rule:nonzero;stroke:#f8766d;stroke-width:0.71;stroke-linecap:round;stroke-linejoin:round;stroke-miterlimit:10;stroke-dasharray:none;stroke-opacity:0.502"
           id="path2338" />
        <path
           d="m 55.45,343.21 c 0,2.54 2.08,4.62 4.62,4.62 2.54,0 4.62,-2.08 4.62,-4.62 0,-2.54 -2.08,-4.62 -4.62,-4.62 -2.54,0 -4.62,2.08 -4.62,4.62"
           style="fill:#f8766d;fill-opacity:0.502;fill-rule:nonzero;stroke:#f8766d;stroke-width:0.71;stroke-linecap:round;stroke-linejoin:round;stroke-miterlimit:10;stroke-dasharray:none;stroke-opacity:0.502"
           id="path2340" />
        <path
           d="m 60.07,363.44 2.94,-3.32 2.95,-3.32 2.94,-3.32 2.95,-3.33 2.94,-3.32 2.95,-3.31 2.94,-3.32 2.95,-3.32 2.94,-3.31 2.94,-3.32 2.95,-3.31 2.94,-3.31 2.95,-3.31 2.94,-3.31 2.95,-3.31 2.94,-3.3 2.95,-3.3 2.94,-3.3 2.94,-3.3 2.95,-3.3 2.94,-3.29 2.95,-3.29 2.94,-3.29 2.95,-3.28 2.94,-3.28 2.95,-3.28 2.94,-3.28 2.94,-3.27 2.95,-3.27 2.94,-3.26 2.95,-3.26 2.94,-3.26 2.95,-3.25 2.94,-3.25 2.95,-3.24 2.94,-3.24 2.94,-3.23 2.95,-3.23 2.94,-3.22 2.95,-3.22 2.94,-3.22 2.95,-3.2 2.94,-3.21 2.95,-3.2 2.94,-3.2 2.94,-3.19 2.95,-3.18 2.94,-3.19 2.95,-3.17 2.94,-3.18 2.95,-3.17 2.94,-3.16 2.95,-3.17 2.94,-3.16 2.94,-3.15 2.95,-3.16 2.94,-3.15 2.95,-3.15 2.94,-3.14 2.95,-3.14 2.94,-3.14 2.95,-3.14 2.94,-3.14 2.94,-3.13 2.95,-3.13 2.94,-3.13 2.95,-3.13 2.94,-3.13 2.95,-3.12 2.94,-3.13 2.95,-3.12 2.94,-3.12 2.94,-3.12 2.95,-3.12 2.94,-3.12 2.95,-3.12 2.94,-3.11 2.95,-3.12 2.94,-3.11 V 97.13 l -2.94,3.32 -2.95,3.33 -2.94,3.32 -2.95,3.32 -2.94,3.32 -2.95,3.32 -2.94,3.32 -2.94,3.31 -2.95,3.32 -2.94,3.31 -2.95,3.32 -2.94,3.31 -2.95,3.31 -2.94,3.3 -2.95,3.31 -2.94,3.3 -2.94,3.31 -2.95,3.3 -2.94,3.3 -2.95,3.29 -2.94,3.29 -2.95,3.29 -2.94,3.29 -2.95,3.29 -2.94,3.28 -2.94,3.28 -2.95,3.27 -2.94,3.27 -2.95,3.27 -2.94,3.27 -2.95,3.26 -2.94,3.25 -2.95,3.25 -2.94,3.25 -2.94,3.24 -2.95,3.24 -2.94,3.23 -2.95,3.23 -2.94,3.23 -2.95,3.22 -2.94,3.21 -2.95,3.21 -2.94,3.2 -2.94,3.2 -2.95,3.2 -2.94,3.19 -2.95,3.19 -2.94,3.18 -2.95,3.18 -2.94,3.17 -2.95,3.17 -2.94,3.17 -2.94,3.16 -2.95,3.16 -2.94,3.16 -2.95,3.15 -2.94,3.15 -2.95,3.15 -2.94,3.14 -2.95,3.15 -2.94,3.14 -2.94,3.14 -2.95,3.13 -2.94,3.13 -2.95,3.14 -2.94,3.13 -2.95,3.13 -2.94,3.12 -2.95,3.13 -2.94,3.12 -2.94,3.12 -2.95,3.13 -2.94,3.12 -2.95,3.12 -2.94,3.11 -2.95,3.12 -2.94,3.12 -2.95,3.11 -2.94,3.12 z"
           style="fill:#69b3a2;fill-opacity:0.4;fill-rule:nonzero;stroke:none"
           id="path2342" />
        <path
           d="m 60.07,357.44 2.94,-3.22 2.95,-3.22 2.94,-3.22 2.95,-3.22 2.94,-3.22 2.95,-3.21 2.94,-3.22 2.95,-3.22 2.94,-3.22 2.94,-3.22 2.95,-3.22 2.94,-3.22 2.95,-3.22 2.94,-3.22 2.95,-3.22 2.94,-3.21 2.95,-3.22 2.94,-3.22 2.94,-3.22 2.95,-3.22 2.94,-3.22 2.95,-3.22 2.94,-3.22 2.95,-3.22 2.94,-3.22 2.95,-3.22 2.94,-3.21 2.94,-3.22 2.95,-3.22 2.94,-3.22 2.95,-3.22 2.94,-3.22 2.95,-3.22 2.94,-3.22 2.95,-3.22 2.94,-3.22 2.94,-3.22 2.95,-3.21 2.94,-3.22 2.95,-3.22 2.94,-3.22 2.95,-3.22 2.94,-3.22 2.95,-3.22 2.94,-3.22 2.94,-3.22 2.95,-3.22 2.94,-3.22 2.95,-3.21 2.94,-3.22 2.95,-3.22 2.94,-3.22 2.95,-3.22 2.94,-3.22 2.94,-3.22 2.95,-3.22 2.94,-3.22 2.95,-3.22 2.94,-3.21 2.95,-3.22 2.94,-3.22 2.95,-3.22 2.94,-3.22 2.94,-3.22 2.95,-3.22 2.94,-3.22 2.95,-3.22 2.94,-3.22 2.95,-3.22 2.94,-3.21 2.95,-3.22 2.94,-3.22 2.94,-3.22 2.95,-3.22 2.94,-3.22 2.95,-3.22 2.94,-3.22 2.95,-3.22 2.94,-3.22"
           style="fill:none;stroke:#000000;stroke-width:2.13;stroke-linecap:butt;stroke-linejoin:round;stroke-miterlimit:10;stroke-dasharray:none;stroke-opacity:1"
           id="path2344" />
        <path
           d="M 48.44,49.71 H 304.31 V 424.03 H 48.44 Z"
           style="fill:none;stroke:#333333;stroke-width:1.55;stroke-linecap:round;stroke-linejoin:round;stroke-miterlimit:10;stroke-dasharray:none;stroke-opacity:1"
           id="path2346" />
      </g>
    </g>
    <g
       id="g2348" />
    <g
       id="g2350" />
    <g
       id="g2352" />
    <g
       id="g2354" />
    <g
       id="g2356" />
    <g
       id="g2358" />
    <g
       id="g2360" />
    <g
       id="g2362" />
    <g
       id="g2364" />
    <g
       id="g2366" />
    <g
       id="g2368" />
    <g
       id="g2370" />
    <g
       id="g2372" />
    <g
       id="g2374" />
    <g
       id="g2376" />
    <g
       id="g2378">
      <text
         xml:space="preserve"
         transform="matrix(1,0,0,-1,34.04,62.06)"
         style="font-variant:normal;font-weight:normal;font-size:13px;font-family:Helvetica;-inkscape-font-specification:Helvetica;writing-mode:lr-tb;fill:#4d4d4d;fill-opacity:1;fill-rule:nonzero;stroke:none"
         id="text2382"><tspan
           x="0"
           y="0"
           id="tspan2380">4</tspan></text>
      <text
         xml:space="preserve"
         transform="matrix(1,0,0,-1,34.04,147.13)"
         style="font-variant:normal;font-weight:normal;font-size:13px;font-family:Helvetica;-inkscape-font-specification:Helvetica;writing-mode:lr-tb;fill:#4d4d4d;fill-opacity:1;fill-rule:nonzero;stroke:none"
         id="text2386"><tspan
           x="0"
           y="0"
           id="tspan2384">6</tspan></text>
      <text
         xml:space="preserve"
         transform="matrix(1,0,0,-1,34.04,232.2)"
         style="font-variant:normal;font-weight:normal;font-size:13px;font-family:Helvetica;-inkscape-font-specification:Helvetica;writing-mode:lr-tb;fill:#4d4d4d;fill-opacity:1;fill-rule:nonzero;stroke:none"
         id="text2390"><tspan
           x="0"
           y="0"
           id="tspan2388">8</tspan></text>
      <text
         xml:space="preserve"
         transform="matrix(1,0,0,-1,26.81,317.28)"
         style="font-variant:normal;font-weight:normal;font-size:13px;font-family:Helvetica;-inkscape-font-specification:Helvetica;writing-mode:lr-tb;fill:#4d4d4d;fill-opacity:1;fill-rule:nonzero;stroke:none"
         id="text2394"><tspan
           x="0 7.2280002"
           y="0"
           sodipodi:role="line"
           id="tspan2392">10</tspan></text>
      <text
         xml:space="preserve"
         transform="matrix(1,0,0,-1,26.81,402.35)"
         style="font-variant:normal;font-weight:normal;font-size:13px;font-family:Helvetica;-inkscape-font-specification:Helvetica;writing-mode:lr-tb;fill:#4d4d4d;fill-opacity:1;fill-rule:nonzero;stroke:none"
         id="text2398"><tspan
           x="0 7.2280002"
           y="0"
           sodipodi:role="line"
           id="tspan2396">12</tspan></text>
    </g>
    <g
       id="g2400" />
    <g
       id="g2402" />
    <g
       id="g2404">
      <path
         d="m 44.45,66.72 h 3.99"
         style="fill:none;stroke:#333333;stroke-width:1.55;stroke-linecap:butt;stroke-linejoin:round;stroke-miterlimit:10;stroke-dasharray:none;stroke-opacity:1"
         id="path2406" />
      <path
         d="m 44.45,151.8 h 3.99"
         style="fill:none;stroke:#333333;stroke-width:1.55;stroke-linecap:butt;stroke-linejoin:round;stroke-miterlimit:10;stroke-dasharray:none;stroke-opacity:1"
         id="path2408" />
      <path
         d="m 44.45,236.87 h 3.99"
         style="fill:none;stroke:#333333;stroke-width:1.55;stroke-linecap:butt;stroke-linejoin:round;stroke-miterlimit:10;stroke-dasharray:none;stroke-opacity:1"
         id="path2410" />
      <path
         d="m 44.45,321.94 h 3.99"
         style="fill:none;stroke:#333333;stroke-width:1.55;stroke-linecap:butt;stroke-linejoin:round;stroke-miterlimit:10;stroke-dasharray:none;stroke-opacity:1"
         id="path2412" />
      <path
         d="m 44.45,407.02 h 3.99"
         style="fill:none;stroke:#333333;stroke-width:1.55;stroke-linecap:butt;stroke-linejoin:round;stroke-miterlimit:10;stroke-dasharray:none;stroke-opacity:1"
         id="path2414" />
    </g>
    <g
       id="g2416" />
    <g
       id="g2418" />
    <g
       id="g2420" />
    <g
       id="g2422" />
    <g
       id="g2424" />
    <g
       id="g2426" />
    <g
       id="g2428" />
    <g
       id="g2430" />
    <g
       id="g2432" />
    <g
       id="g2434" />
    <g
       id="g2436">
      <path
         d="m 60.07,45.73 v 3.98"
         style="fill:none;stroke:#333333;stroke-width:1.55;stroke-linecap:butt;stroke-linejoin:round;stroke-miterlimit:10;stroke-dasharray:none;stroke-opacity:1"
         id="path2438" />
      <path
         d="m 98.84,45.73 v 3.98"
         style="fill:none;stroke:#333333;stroke-width:1.55;stroke-linecap:butt;stroke-linejoin:round;stroke-miterlimit:10;stroke-dasharray:none;stroke-opacity:1"
         id="path2440" />
      <path
         d="m 137.61,45.73 v 3.98"
         style="fill:none;stroke:#333333;stroke-width:1.55;stroke-linecap:butt;stroke-linejoin:round;stroke-miterlimit:10;stroke-dasharray:none;stroke-opacity:1"
         id="path2442" />
      <path
         d="m 176.38,45.73 v 3.98"
         style="fill:none;stroke:#333333;stroke-width:1.55;stroke-linecap:butt;stroke-linejoin:round;stroke-miterlimit:10;stroke-dasharray:none;stroke-opacity:1"
         id="path2444" />
      <path
         d="m 215.14,45.73 v 3.98"
         style="fill:none;stroke:#333333;stroke-width:1.55;stroke-linecap:butt;stroke-linejoin:round;stroke-miterlimit:10;stroke-dasharray:none;stroke-opacity:1"
         id="path2446" />
      <path
         d="m 253.91,45.73 v 3.98"
         style="fill:none;stroke:#333333;stroke-width:1.55;stroke-linecap:butt;stroke-linejoin:round;stroke-miterlimit:10;stroke-dasharray:none;stroke-opacity:1"
         id="path2448" />
      <path
         d="m 292.68,45.73 v 3.98"
         style="fill:none;stroke:#333333;stroke-width:1.55;stroke-linecap:butt;stroke-linejoin:round;stroke-miterlimit:10;stroke-dasharray:none;stroke-opacity:1"
         id="path2450" />
    </g>
    <g
       id="g2452" />
    <g
       id="g2454">
      <text
         xml:space="preserve"
         transform="matrix(1,0,0,-1,50.34,29.75)"
         style="font-variant:normal;font-weight:normal;font-size:13px;font-family:Helvetica;-inkscape-font-specification:Helvetica;writing-mode:lr-tb;fill:#4d4d4d;fill-opacity:1;fill-rule:nonzero;stroke:none"
         id="text2458"><tspan
           x="0 7.2280002"
           y="0"
           sodipodi:role="line"
           id="tspan2456">10</tspan></text>
      <text
         xml:space="preserve"
         transform="matrix(1,0,0,-1,64.8,36.21)"
         style="font-variant:normal;font-weight:normal;font-size:9px;font-family:Helvetica;-inkscape-font-specification:Helvetica;writing-mode:lr-tb;fill:#4d4d4d;fill-opacity:1;fill-rule:nonzero;stroke:none"
         id="text2462"><tspan
           x="0"
           y="0"
           id="tspan2460">2</tspan></text>
      <text
         xml:space="preserve"
         transform="matrix(1,0,0,-1,89.11,29.75)"
         style="font-variant:normal;font-weight:normal;font-size:13px;font-family:Helvetica;-inkscape-font-specification:Helvetica;writing-mode:lr-tb;fill:#4d4d4d;fill-opacity:1;fill-rule:nonzero;stroke:none"
         id="text2466"><tspan
           x="0 7.2280002"
           y="0"
           sodipodi:role="line"
           id="tspan2464">10</tspan></text>
      <text
         xml:space="preserve"
         transform="matrix(1,0,0,-1,103.56,36.21)"
         style="font-variant:normal;font-weight:normal;font-size:9px;font-family:Helvetica;-inkscape-font-specification:Helvetica;writing-mode:lr-tb;fill:#4d4d4d;fill-opacity:1;fill-rule:nonzero;stroke:none"
         id="text2470"><tspan
           x="0"
           y="0"
           id="tspan2468">3</tspan></text>
      <text
         xml:space="preserve"
         transform="matrix(1,0,0,-1,127.88,29.75)"
         style="font-variant:normal;font-weight:normal;font-size:13px;font-family:Helvetica;-inkscape-font-specification:Helvetica;writing-mode:lr-tb;fill:#4d4d4d;fill-opacity:1;fill-rule:nonzero;stroke:none"
         id="text2474"><tspan
           x="0 7.2280002"
           y="0"
           sodipodi:role="line"
           id="tspan2472">10</tspan></text>
      <text
         xml:space="preserve"
         transform="matrix(1,0,0,-1,142.33,36.21)"
         style="font-variant:normal;font-weight:normal;font-size:9px;font-family:Helvetica;-inkscape-font-specification:Helvetica;writing-mode:lr-tb;fill:#4d4d4d;fill-opacity:1;fill-rule:nonzero;stroke:none"
         id="text2478"><tspan
           x="0"
           y="0"
           id="tspan2476">4</tspan></text>
      <text
         xml:space="preserve"
         transform="matrix(1,0,0,-1,166.65,29.89)"
         style="font-variant:normal;font-weight:normal;font-size:13px;font-family:Helvetica;-inkscape-font-specification:Helvetica;writing-mode:lr-tb;fill:#4d4d4d;fill-opacity:1;fill-rule:nonzero;stroke:none"
         id="text2482"><tspan
           x="0 7.2280002"
           y="0"
           sodipodi:role="line"
           id="tspan2480">10</tspan></text>
      <text
         xml:space="preserve"
         transform="matrix(1,0,0,-1,181.1,36.35)"
         style="font-variant:normal;font-weight:normal;font-size:9px;font-family:Helvetica;-inkscape-font-specification:Helvetica;writing-mode:lr-tb;fill:#4d4d4d;fill-opacity:1;fill-rule:nonzero;stroke:none"
         id="text2486"><tspan
           x="0"
           y="0"
           id="tspan2484">5</tspan></text>
      <text
         xml:space="preserve"
         transform="matrix(1,0,0,-1,205.41,29.75)"
         style="font-variant:normal;font-weight:normal;font-size:13px;font-family:Helvetica;-inkscape-font-specification:Helvetica;writing-mode:lr-tb;fill:#4d4d4d;fill-opacity:1;fill-rule:nonzero;stroke:none"
         id="text2490"><tspan
           x="0 7.2280002"
           y="0"
           sodipodi:role="line"
           id="tspan2488">10</tspan></text>
      <text
         xml:space="preserve"
         transform="matrix(1,0,0,-1,219.87,36.21)"
         style="font-variant:normal;font-weight:normal;font-size:9px;font-family:Helvetica;-inkscape-font-specification:Helvetica;writing-mode:lr-tb;fill:#4d4d4d;fill-opacity:1;fill-rule:nonzero;stroke:none"
         id="text2494"><tspan
           x="0"
           y="0"
           id="tspan2492">6</tspan></text>
      <text
         xml:space="preserve"
         transform="matrix(1,0,0,-1,244.18,29.89)"
         style="font-variant:normal;font-weight:normal;font-size:13px;font-family:Helvetica;-inkscape-font-specification:Helvetica;writing-mode:lr-tb;fill:#4d4d4d;fill-opacity:1;fill-rule:nonzero;stroke:none"
         id="text2498"><tspan
           x="0 7.2280002"
           y="0"
           sodipodi:role="line"
           id="tspan2496">10</tspan></text>
      <text
         xml:space="preserve"
         transform="matrix(1,0,0,-1,258.64,36.35)"
         style="font-variant:normal;font-weight:normal;font-size:9px;font-family:Helvetica;-inkscape-font-specification:Helvetica;writing-mode:lr-tb;fill:#4d4d4d;fill-opacity:1;fill-rule:nonzero;stroke:none"
         id="text2502"><tspan
           x="0"
           y="0"
           id="tspan2500">7</tspan></text>
      <text
         xml:space="preserve"
         transform="matrix(1,0,0,-1,282.95,29.75)"
         style="font-variant:normal;font-weight:normal;font-size:13px;font-family:Helvetica;-inkscape-font-specification:Helvetica;writing-mode:lr-tb;fill:#4d4d4d;fill-opacity:1;fill-rule:nonzero;stroke:none"
         id="text2506"><tspan
           x="0 7.2280002"
           y="0"
           sodipodi:role="line"
           id="tspan2504">10</tspan></text>
      <text
         xml:space="preserve"
         transform="matrix(1,0,0,-1,297.41,36.21)"
         style="font-variant:normal;font-weight:normal;font-size:9px;font-family:Helvetica;-inkscape-font-specification:Helvetica;writing-mode:lr-tb;fill:#4d4d4d;fill-opacity:1;fill-rule:nonzero;stroke:none"
         id="text2510"><tspan
           x="0"
           y="0"
           id="tspan2508">8</tspan></text>
    </g>
    <g
       id="g2512" />
    <g
       id="g2514" />
    <g
       id="g2516" />
    <g
       id="g2518" />
    <g
       id="g2520" />
    <g
       id="g2522" />
    <g
       id="g2524" />
    <g
       id="g2526">
      <text
         xml:space="preserve"
         transform="matrix(1,0,0,-1,111.92,11.34)"
         style="font-variant:normal;font-weight:normal;font-size:16px;font-family:Helvetica;-inkscape-font-specification:Helvetica;writing-mode:lr-tb;fill:#000000;fill-opacity:1;fill-rule:nonzero;stroke:none"
         id="text2530"><tspan
           x="0 4.448 13.344 22.24 30.24 39.136002 42.688 51.584 64.912003 69.360001 80.912003 90.688004 102.24 106.688 120.016"
           y="0"
           sodipodi:role="line"
           id="tspan2528">Inoculum CFU/mL</tspan></text>
    </g>
    <g
       id="g2532" />
    <g
       id="g2534" />
    <g
       id="g2536">
      <text
         xml:space="preserve"
         transform="matrix(0,1,1,0,19.46,204.42)"
         style="font-variant:normal;font-weight:normal;font-size:16px;font-family:Helvetica;-inkscape-font-specification:Helvetica;writing-mode:lr-tb;fill:#000000;fill-opacity:1;fill-rule:nonzero;stroke:none"
         id="text2540"><tspan
           x="0 9.776 18.672001 27.568001 35.568001 40.015999 45.344002 54.240002 59.568001"
           y="0"
           sodipodi:role="line"
           id="tspan2538">Tpos (hr)</tspan></text>
    </g>
    <g
       id="g2542" />
    <g
       id="g2544" />
    <g
       id="g2546" />
    <g
       id="g2548" />
    <g
       id="g2550" />
    <g
       id="g2552" />
    <g
       id="g2554" />
    <g
       id="g2556" />
    <g
       id="g2562" />
    <g
       id="g2564" />
    <g
       id="g2566" />
    <g
       id="g2568"
       transform="translate(-150.14634,110.02103)">
      <text
         xml:space="preserve"
         transform="matrix(1,0,0,-1,328.22,279.73)"
         style="font-variant:normal;font-weight:normal;font-size:16px;font-family:Helvetica;-inkscape-font-specification:Helvetica;writing-mode:lr-tb;fill:#000000;fill-opacity:1;fill-rule:nonzero;stroke:none"
         id="text2572"><tspan
           x="0 8.8959999 12.448 16 24.896 33.792 42.688"
           y="0"
           sodipodi:role="line"
           id="tspan2570">diluent</tspan></text>
    </g>
    <g
       id="g2574" />
    <g
       id="g2576" />
    <g
       id="g2578" />
    <g
       id="g2580"
       transform="translate(-149.49916,112.60975)">
      <path
         d="m 328.22,252.81 h 17.28 v 17.28 h -17.28 z"
         style="fill:#ffffff;fill-opacity:1;fill-rule:nonzero;stroke:none"
         id="path2582" />
    </g>
    <g
       id="g2584" />
    <g
       id="g2586"
       transform="translate(-149.49916,112.60975)">
      <path
         d="m 328.22,252.81 h 17.28 v 17.28 h -17.28 z"
         style="fill:#69b3a2;fill-opacity:0.4;fill-rule:nonzero;stroke:none"
         id="path2588" />
      <path
         d="m 329.95,261.45 h 13.82"
         style="fill:none;stroke:#000000;stroke-width:2.13;stroke-linecap:butt;stroke-linejoin:round;stroke-miterlimit:10;stroke-dasharray:none;stroke-opacity:1"
         id="path2590" />
    </g>
    <g
       id="g2592" />
    <g
       id="g2594" />
    <g
       id="g2596" />
    <g
       id="g2604" />
    <g
       id="g2606" />
    <g
       id="g2608" />
    <g
       id="g2610" />
    <g
       id="g2612" />
    <g
       id="g2614" />
    <g
       id="g2616">
      <path
         d="M 320.25,172.89 H 424.03 V 228.9 H 320.25 Z"
         style="fill:#ffffff;fill-opacity:1;fill-rule:nonzero;stroke:none"
         id="path2618" />
    </g>
    <g
       id="g2620" />
    <g
       id="g2622" />
    <g
       id="g2624" />
    <g
       id="g2626">
      <text
         xml:space="preserve"
         transform="scale(1,-1)"
         style="font-variant:normal;font-weight:normal;font-size:16px;font-family:Helvetica;-inkscape-font-specification:Helvetica;writing-mode:lr-tb;fill:#000000;fill-opacity:1;fill-rule:nonzero;stroke:none"
         id="text2630"
         x="62.875175"
         y="-142.41457"><tspan
           x="62.875175 66.427177 74.427177 83.323174 86.875175 95.771179 100.21918"
           y="-142.41457"
           sodipodi:role="line"
           id="tspan2628">isolate</tspan></text>
    </g>
    <g
       id="g2632" />
    <g
       id="g2634" />
    <g
       id="g2636" />
    <g
       id="g2638">
      <path
         d="m 328.22,180.86 h 17.28 v 17.28 h -17.28 z"
         style="fill:#ffffff;fill-opacity:1;fill-rule:nonzero;stroke:none"
         id="path2640" />
    </g>
    <g
       id="g2642" />
    <g
       id="g2644"
       transform="translate(-266.63919,-58.246424)">
      <path
         d="m 332.24,189.5 c 0,2.54 2.08,4.62 4.62,4.62 2.54,0 4.62,-2.08 4.62,-4.62 0,-2.54 -2.08,-4.62 -4.62,-4.62 -2.54,0 -4.62,2.08 -4.62,4.62"
         style="fill:#f8766d;fill-opacity:0.502;fill-rule:nonzero;stroke:#f8766d;stroke-width:0.71;stroke-linecap:round;stroke-linejoin:round;stroke-miterlimit:10;stroke-dasharray:none;stroke-opacity:0.502"
         id="path2646" />
    </g>
    <g
       id="g2648" />
    <g
       id="g2650" />
    <g
       id="g2652" />
    <g
       id="g2654"
       transform="translate(-266.63919,-58.246424)">
      <text
         xml:space="preserve"
         transform="matrix(1,0,0,-1,353.47,184.83)"
         style="font-variant:normal;font-weight:normal;font-size:13px;font-family:Helvetica;-inkscape-font-specification:Helvetica;writing-mode:lr-tb;fill:#000000;fill-opacity:1;fill-rule:nonzero;stroke:none"
         id="text2658"><tspan
           x="0 8.6709995 15.171 22.399 25.285 25.285 25.285"
           y="0"
           sodipodi:role="line"
           id="tspan2656">Ecoli_ _ATCC 25922</tspan></text>
    </g>
    <g
       id="g2660" />
    <g
       id="g2662" />
    <g
       id="g2664" />
    <g
       id="g2666" />
    <g
       id="g2668" />
    <g
       id="g2670" />
    <g
       id="g2672" />
    <g
       id="g2674" />
    <g
       id="g2676" />
    <g
       id="g2678" />
    <g
       id="g2680" />
    <g
       id="g2682" />
    <g
       id="g2684" />
    <g
       id="g2686" />
    <g
       id="g2688" />
    <g
       id="g2690" />
    <g
       id="g874"
       transform="translate(-147.5283,220.95405)">
      <text
         xml:space="preserve"
         transform="matrix(1,0,0,-1,347.78,150.27)"
         style="font-variant:normal;font-weight:normal;font-size:13px;font-family:Helvetica;-inkscape-font-specification:Helvetica;writing-mode:lr-tb;fill:#000000;fill-opacity:1;fill-rule:nonzero;stroke:none"
         id="text878"><tspan
           x="0 7.2280002 14.456"
           y="0"
           sodipodi:role="line"
           id="tspan876">pbs R =0.99</tspan></text>
    </g>
    <text
       xml:space="preserve"
       style="font-size:6.1304px;fill:#000000;stroke-width:0.510867"
       x="232.46481"
       y="-375.33481"
       id="text745"
       transform="scale(0.99555119,-1.0044687)"><tspan
         sodipodi:role="line"
         id="tspan743"
         style="stroke-width:0.510867"
         x="232.46481"
         y="-375.33481"> 2</tspan></text>
  </g>
</svg>
