<?xml version="1.0" encoding="UTF-8" standalone="no"?>
<!-- Created with Inkscape (http://www.inkscape.org/) -->

<svg
   version="1.1"
   id="svg2"
   width="672"
   height="602.66669"
   viewBox="0 0 672 602.66669"
   sodipodi:docname="Figure 1d.svg"
   inkscape:version="1.2.2 (b0a84865, 2022-12-01)"
   xmlns:inkscape="http://www.inkscape.org/namespaces/inkscape"
   xmlns:sodipodi="http://sodipodi.sourceforge.net/DTD/sodipodi-0.dtd"
   xmlns="http://www.w3.org/2000/svg"
   xmlns:svg="http://www.w3.org/2000/svg">
  <defs
     id="defs6">
    <clipPath
       clipPathUnits="userSpaceOnUse"
       id="clipPath42">
      <path
         d="M 48.44,49.71 H 389.87 V 444.28 H 48.44 Z"
         id="path40" />
    </clipPath>
  </defs>
  <sodipodi:namedview
     id="namedview4"
     pagecolor="#ffffff"
     bordercolor="#000000"
     borderopacity="0.25"
     inkscape:showpageshadow="2"
     inkscape:pageopacity="0.0"
     inkscape:pagecheckerboard="0"
     inkscape:deskcolor="#d1d1d1"
     showgrid="false"
     inkscape:zoom="1.0885465"
     inkscape:cx="528.22731"
     inkscape:cy="237.0133"
     inkscape:window-width="1888"
     inkscape:window-height="1010"
     inkscape:window-x="0"
     inkscape:window-y="25"
     inkscape:window-maximized="0"
     inkscape:current-layer="g10">
    <inkscape:page
       x="0"
       y="0"
       id="page8"
       width="672"
       height="602.66669" />
  </sodipodi:namedview>
  <g
     id="g10"
     inkscape:groupmode="layer"
     inkscape:label="Page 1"
     transform="matrix(1.3333333,0,0,-1.3333333,0,602.66667)">
    <g
       id="g12" />
    <g
       id="g14" />
    <g
       id="g16" />
    <g
       id="g18" />
    <g
       id="g20" />
    <g
       id="g22" />
    <g
       id="g24" />
    <g
       id="g26" />
    <g
       id="g28" />
    <g
       id="g34" />
    <g
       id="g36">
      <g
         id="g38"
         clip-path="url(#clipPath42)">
        <path
           d="M 48.44,49.71 H 389.87 V 444.28 H 48.44 Z"
           style="fill:#ffffff;fill-opacity:1;fill-rule:nonzero;stroke:none"
           id="path44" />
        <path
           d="M 48.44,112.48 H 389.87"
           style="fill:none;stroke:#ebebeb;stroke-width:0.78;stroke-linecap:butt;stroke-linejoin:round;stroke-miterlimit:10;stroke-dasharray:none;stroke-opacity:1"
           id="path46" />
        <path
           d="M 48.44,202.16 H 389.87"
           style="fill:none;stroke:#ebebeb;stroke-width:0.78;stroke-linecap:butt;stroke-linejoin:round;stroke-miterlimit:10;stroke-dasharray:none;stroke-opacity:1"
           id="path48" />
        <path
           d="M 48.44,291.83 H 389.87"
           style="fill:none;stroke:#ebebeb;stroke-width:0.78;stroke-linecap:butt;stroke-linejoin:round;stroke-miterlimit:10;stroke-dasharray:none;stroke-opacity:1"
           id="path50" />
        <path
           d="M 48.44,381.51 H 389.87"
           style="fill:none;stroke:#ebebeb;stroke-width:0.78;stroke-linecap:butt;stroke-linejoin:round;stroke-miterlimit:10;stroke-dasharray:none;stroke-opacity:1"
           id="path52" />
        <path
           d="M 89.82,49.71 V 444.28"
           style="fill:none;stroke:#ebebeb;stroke-width:0.78;stroke-linecap:butt;stroke-linejoin:round;stroke-miterlimit:10;stroke-dasharray:none;stroke-opacity:1"
           id="path54" />
        <path
           d="M 141.56,49.71 V 444.28"
           style="fill:none;stroke:#ebebeb;stroke-width:0.78;stroke-linecap:butt;stroke-linejoin:round;stroke-miterlimit:10;stroke-dasharray:none;stroke-opacity:1"
           id="path56" />
        <path
           d="M 193.29,49.71 V 444.28"
           style="fill:none;stroke:#ebebeb;stroke-width:0.78;stroke-linecap:butt;stroke-linejoin:round;stroke-miterlimit:10;stroke-dasharray:none;stroke-opacity:1"
           id="path58" />
        <path
           d="M 245.02,49.71 V 444.28"
           style="fill:none;stroke:#ebebeb;stroke-width:0.78;stroke-linecap:butt;stroke-linejoin:round;stroke-miterlimit:10;stroke-dasharray:none;stroke-opacity:1"
           id="path60" />
        <path
           d="M 296.75,49.71 V 444.28"
           style="fill:none;stroke:#ebebeb;stroke-width:0.78;stroke-linecap:butt;stroke-linejoin:round;stroke-miterlimit:10;stroke-dasharray:none;stroke-opacity:1"
           id="path62" />
        <path
           d="M 348.48,49.71 V 444.28"
           style="fill:none;stroke:#ebebeb;stroke-width:0.78;stroke-linecap:butt;stroke-linejoin:round;stroke-miterlimit:10;stroke-dasharray:none;stroke-opacity:1"
           id="path64" />
        <path
           d="M 48.44,67.65 H 389.87"
           style="fill:none;stroke:#ebebeb;stroke-width:1.55;stroke-linecap:butt;stroke-linejoin:round;stroke-miterlimit:10;stroke-dasharray:none;stroke-opacity:1"
           id="path66" />
        <path
           d="M 48.44,157.32 H 389.87"
           style="fill:none;stroke:#ebebeb;stroke-width:1.55;stroke-linecap:butt;stroke-linejoin:round;stroke-miterlimit:10;stroke-dasharray:none;stroke-opacity:1"
           id="path68" />
        <path
           d="M 48.44,247 H 389.87"
           style="fill:none;stroke:#ebebeb;stroke-width:1.55;stroke-linecap:butt;stroke-linejoin:round;stroke-miterlimit:10;stroke-dasharray:none;stroke-opacity:1"
           id="path70" />
        <path
           d="M 48.44,336.67 H 389.87"
           style="fill:none;stroke:#ebebeb;stroke-width:1.55;stroke-linecap:butt;stroke-linejoin:round;stroke-miterlimit:10;stroke-dasharray:none;stroke-opacity:1"
           id="path72" />
        <path
           d="M 48.44,426.34 H 389.87"
           style="fill:none;stroke:#ebebeb;stroke-width:1.55;stroke-linecap:butt;stroke-linejoin:round;stroke-miterlimit:10;stroke-dasharray:none;stroke-opacity:1"
           id="path74" />
        <path
           d="M 63.96,49.71 V 444.28"
           style="fill:none;stroke:#ebebeb;stroke-width:1.55;stroke-linecap:butt;stroke-linejoin:round;stroke-miterlimit:10;stroke-dasharray:none;stroke-opacity:1"
           id="path76" />
        <path
           d="M 115.69,49.71 V 444.28"
           style="fill:none;stroke:#ebebeb;stroke-width:1.55;stroke-linecap:butt;stroke-linejoin:round;stroke-miterlimit:10;stroke-dasharray:none;stroke-opacity:1"
           id="path78" />
        <path
           d="M 167.42,49.71 V 444.28"
           style="fill:none;stroke:#ebebeb;stroke-width:1.55;stroke-linecap:butt;stroke-linejoin:round;stroke-miterlimit:10;stroke-dasharray:none;stroke-opacity:1"
           id="path80" />
        <path
           d="M 219.15,49.71 V 444.28"
           style="fill:none;stroke:#ebebeb;stroke-width:1.55;stroke-linecap:butt;stroke-linejoin:round;stroke-miterlimit:10;stroke-dasharray:none;stroke-opacity:1"
           id="path82" />
        <path
           d="M 270.89,49.71 V 444.28"
           style="fill:none;stroke:#ebebeb;stroke-width:1.55;stroke-linecap:butt;stroke-linejoin:round;stroke-miterlimit:10;stroke-dasharray:none;stroke-opacity:1"
           id="path84" />
        <path
           d="M 322.62,49.71 V 444.28"
           style="fill:none;stroke:#ebebeb;stroke-width:1.55;stroke-linecap:butt;stroke-linejoin:round;stroke-miterlimit:10;stroke-dasharray:none;stroke-opacity:1"
           id="path86" />
        <path
           d="M 374.35,49.71 V 444.28"
           style="fill:none;stroke:#ebebeb;stroke-width:1.55;stroke-linecap:butt;stroke-linejoin:round;stroke-miterlimit:10;stroke-dasharray:none;stroke-opacity:1"
           id="path88" />
        <path
           d="m 369.73,94.55 c 0,2.54 2.08,4.62 4.62,4.62 2.54,0 4.62,-2.08 4.62,-4.62 0,-2.54 -2.08,-4.62 -4.62,-4.62 -2.54,0 -4.62,2.08 -4.62,4.62"
           style="fill:#f8766d;fill-opacity:0.502;fill-rule:nonzero;stroke:#f8766d;stroke-width:0.71;stroke-linecap:round;stroke-linejoin:round;stroke-miterlimit:10;stroke-dasharray:none;stroke-opacity:0.502"
           id="path90" />
        <path
           d="m 317.99,179.74 c 0,2.54 2.08,4.62 4.63,4.62 2.54,0 4.62,-2.08 4.62,-4.62 0,-2.54 -2.08,-4.62 -4.62,-4.62 -2.55,0 -4.63,2.08 -4.63,4.62"
           style="fill:#f8766d;fill-opacity:0.502;fill-rule:nonzero;stroke:#f8766d;stroke-width:0.71;stroke-linecap:round;stroke-linejoin:round;stroke-miterlimit:10;stroke-dasharray:none;stroke-opacity:0.502"
           id="path92" />
        <path
           d="m 266.26,251.48 c 0,2.54 2.08,4.62 4.63,4.62 2.54,0 4.62,-2.08 4.62,-4.62 0,-2.54 -2.08,-4.62 -4.62,-4.62 -2.55,0 -4.63,2.08 -4.63,4.62"
           style="fill:#f8766d;fill-opacity:0.502;fill-rule:nonzero;stroke:#f8766d;stroke-width:0.71;stroke-linecap:round;stroke-linejoin:round;stroke-miterlimit:10;stroke-dasharray:none;stroke-opacity:0.502"
           id="path94" />
        <path
           d="m 214.53,336.67 c 0,2.54 2.08,4.62 4.62,4.62 2.55,0 4.63,-2.08 4.63,-4.62 0,-2.54 -2.08,-4.62 -4.63,-4.62 -2.54,0 -4.62,2.08 -4.62,4.62"
           style="fill:#f8766d;fill-opacity:0.502;fill-rule:nonzero;stroke:#f8766d;stroke-width:0.71;stroke-linecap:round;stroke-linejoin:round;stroke-miterlimit:10;stroke-dasharray:none;stroke-opacity:0.502"
           id="path96" />
        <path
           d="m 369.73,123.69 c 0,2.54 2.08,4.62 4.62,4.62 2.54,0 4.62,-2.08 4.62,-4.62 0,-2.54 -2.08,-4.62 -4.62,-4.62 -2.54,0 -4.62,2.08 -4.62,4.62"
           style="fill:#f8766d;fill-opacity:0.502;fill-rule:nonzero;stroke:#f8766d;stroke-width:0.71;stroke-linecap:round;stroke-linejoin:round;stroke-miterlimit:10;stroke-dasharray:none;stroke-opacity:0.502"
           id="path98" />
        <path
           d="m 317.99,184.22 c 0,2.54 2.08,4.62 4.63,4.62 2.54,0 4.62,-2.08 4.62,-4.62 0,-2.54 -2.08,-4.62 -4.62,-4.62 -2.55,0 -4.63,2.08 -4.63,4.62"
           style="fill:#f8766d;fill-opacity:0.502;fill-rule:nonzero;stroke:#f8766d;stroke-width:0.71;stroke-linecap:round;stroke-linejoin:round;stroke-miterlimit:10;stroke-dasharray:none;stroke-opacity:0.502"
           id="path100" />
        <path
           d="m 266.26,273.9 c 0,2.54 2.08,4.62 4.63,4.62 2.54,0 4.62,-2.08 4.62,-4.62 0,-2.54 -2.08,-4.62 -4.62,-4.62 -2.55,0 -4.63,2.08 -4.63,4.62"
           style="fill:#f8766d;fill-opacity:0.502;fill-rule:nonzero;stroke:#f8766d;stroke-width:0.71;stroke-linecap:round;stroke-linejoin:round;stroke-miterlimit:10;stroke-dasharray:none;stroke-opacity:0.502"
           id="path102" />
        <path
           d="m 214.53,332.19 c 0,2.54 2.08,4.62 4.62,4.62 2.55,0 4.63,-2.08 4.63,-4.62 0,-2.55 -2.08,-4.63 -4.63,-4.63 -2.54,0 -4.62,2.08 -4.62,4.63"
           style="fill:#f8766d;fill-opacity:0.502;fill-rule:nonzero;stroke:#f8766d;stroke-width:0.71;stroke-linecap:round;stroke-linejoin:round;stroke-miterlimit:10;stroke-dasharray:none;stroke-opacity:0.502"
           id="path104" />
        <path
           d="m 162.8,394.96 c 0,2.54 2.08,4.62 4.62,4.62 2.54,0 4.62,-2.08 4.62,-4.62 0,-2.54 -2.08,-4.62 -4.62,-4.62 -2.54,0 -4.62,2.08 -4.62,4.62"
           style="fill:#f8766d;fill-opacity:0.502;fill-rule:nonzero;stroke:#f8766d;stroke-width:0.71;stroke-linecap:round;stroke-linejoin:round;stroke-miterlimit:10;stroke-dasharray:none;stroke-opacity:0.502"
           id="path106" />
        <path
           d="m 369.73,148.35 c 0,2.54 2.08,4.62 4.62,4.62 2.54,0 4.62,-2.08 4.62,-4.62 0,-2.54 -2.08,-4.62 -4.62,-4.62 -2.54,0 -4.62,2.08 -4.62,4.62"
           style="fill:#00bfc4;fill-opacity:0.502;fill-rule:nonzero;stroke:#00bfc4;stroke-width:0.71;stroke-linecap:round;stroke-linejoin:round;stroke-miterlimit:10;stroke-dasharray:none;stroke-opacity:0.502"
           id="path108" />
        <path
           d="m 317.99,220.09 c 0,2.54 2.08,4.62 4.63,4.62 2.54,0 4.62,-2.08 4.62,-4.62 0,-2.54 -2.08,-4.62 -4.62,-4.62 -2.55,0 -4.63,2.08 -4.63,4.62"
           style="fill:#00bfc4;fill-opacity:0.502;fill-rule:nonzero;stroke:#00bfc4;stroke-width:0.71;stroke-linecap:round;stroke-linejoin:round;stroke-miterlimit:10;stroke-dasharray:none;stroke-opacity:0.502"
           id="path110" />
        <path
           d="m 266.26,273.9 c 0,2.54 2.08,4.62 4.63,4.62 2.54,0 4.62,-2.08 4.62,-4.62 0,-2.54 -2.08,-4.62 -4.62,-4.62 -2.55,0 -4.63,2.08 -4.63,4.62"
           style="fill:#00bfc4;fill-opacity:0.502;fill-rule:nonzero;stroke:#00bfc4;stroke-width:0.71;stroke-linecap:round;stroke-linejoin:round;stroke-miterlimit:10;stroke-dasharray:none;stroke-opacity:0.502"
           id="path112" />
        <path
           d="m 214.53,341.15 c 0,2.55 2.08,4.63 4.62,4.63 2.55,0 4.63,-2.08 4.63,-4.63 0,-2.54 -2.08,-4.62 -4.63,-4.62 -2.54,0 -4.62,2.08 -4.62,4.62"
           style="fill:#00bfc4;fill-opacity:0.502;fill-rule:nonzero;stroke:#00bfc4;stroke-width:0.71;stroke-linecap:round;stroke-linejoin:round;stroke-miterlimit:10;stroke-dasharray:none;stroke-opacity:0.502"
           id="path114" />
        <path
           d="m 162.8,385.99 c 0,2.54 2.08,4.62 4.62,4.62 2.54,0 4.62,-2.08 4.62,-4.62 0,-2.54 -2.08,-4.62 -4.62,-4.62 -2.54,0 -4.62,2.08 -4.62,4.62"
           style="fill:#00bfc4;fill-opacity:0.502;fill-rule:nonzero;stroke:#00bfc4;stroke-width:0.71;stroke-linecap:round;stroke-linejoin:round;stroke-miterlimit:10;stroke-dasharray:none;stroke-opacity:0.502"
           id="path116" />
        <path
           d="m 369.73,134.9 c 0,2.54 2.08,4.62 4.62,4.62 2.54,0 4.62,-2.08 4.62,-4.62 0,-2.54 -2.08,-4.62 -4.62,-4.62 -2.54,0 -4.62,2.08 -4.62,4.62"
           style="fill:#00bfc4;fill-opacity:0.502;fill-rule:nonzero;stroke:#00bfc4;stroke-width:0.71;stroke-linecap:round;stroke-linejoin:round;stroke-miterlimit:10;stroke-dasharray:none;stroke-opacity:0.502"
           id="path118" />
        <path
           d="m 317.99,202.16 c 0,2.54 2.08,4.62 4.63,4.62 2.54,0 4.62,-2.08 4.62,-4.62 0,-2.54 -2.08,-4.62 -4.62,-4.62 -2.55,0 -4.63,2.08 -4.63,4.62"
           style="fill:#00bfc4;fill-opacity:0.502;fill-rule:nonzero;stroke:#00bfc4;stroke-width:0.71;stroke-linecap:round;stroke-linejoin:round;stroke-miterlimit:10;stroke-dasharray:none;stroke-opacity:0.502"
           id="path120" />
        <path
           d="m 266.26,269.41 c 0,2.55 2.08,4.63 4.63,4.63 2.54,0 4.62,-2.08 4.62,-4.63 0,-2.54 -2.08,-4.62 -4.62,-4.62 -2.55,0 -4.63,2.08 -4.63,4.62"
           style="fill:#00bfc4;fill-opacity:0.502;fill-rule:nonzero;stroke:#00bfc4;stroke-width:0.71;stroke-linecap:round;stroke-linejoin:round;stroke-miterlimit:10;stroke-dasharray:none;stroke-opacity:0.502"
           id="path122" />
        <path
           d="m 214.53,336.67 c 0,2.54 2.08,4.62 4.62,4.62 2.55,0 4.63,-2.08 4.63,-4.62 0,-2.54 -2.08,-4.62 -4.63,-4.62 -2.54,0 -4.62,2.08 -4.62,4.62"
           style="fill:#00bfc4;fill-opacity:0.502;fill-rule:nonzero;stroke:#00bfc4;stroke-width:0.71;stroke-linecap:round;stroke-linejoin:round;stroke-miterlimit:10;stroke-dasharray:none;stroke-opacity:0.502"
           id="path124" />
        <path
           d="m 162.8,403.93 c 0,2.54 2.08,4.62 4.62,4.62 2.54,0 4.62,-2.08 4.62,-4.62 0,-2.55 -2.08,-4.63 -4.62,-4.63 -2.54,0 -4.62,2.08 -4.62,4.63"
           style="fill:#00bfc4;fill-opacity:0.502;fill-rule:nonzero;stroke:#00bfc4;stroke-width:0.71;stroke-linecap:round;stroke-linejoin:round;stroke-miterlimit:10;stroke-dasharray:none;stroke-opacity:0.502"
           id="path126" />
        <path
           d="m 369.73,116.97 c 0,2.54 2.08,4.62 4.62,4.62 2.54,0 4.62,-2.08 4.62,-4.62 0,-2.55 -2.08,-4.63 -4.62,-4.63 -2.54,0 -4.62,2.08 -4.62,4.63"
           style="fill:#00bfc4;fill-opacity:0.502;fill-rule:nonzero;stroke:#00bfc4;stroke-width:0.71;stroke-linecap:round;stroke-linejoin:round;stroke-miterlimit:10;stroke-dasharray:none;stroke-opacity:0.502"
           id="path128" />
        <path
           d="m 317.99,184.22 c 0,2.54 2.08,4.62 4.63,4.62 2.54,0 4.62,-2.08 4.62,-4.62 0,-2.54 -2.08,-4.62 -4.62,-4.62 -2.55,0 -4.63,2.08 -4.63,4.62"
           style="fill:#00bfc4;fill-opacity:0.502;fill-rule:nonzero;stroke:#00bfc4;stroke-width:0.71;stroke-linecap:round;stroke-linejoin:round;stroke-miterlimit:10;stroke-dasharray:none;stroke-opacity:0.502"
           id="path130" />
        <path
           d="m 266.26,273.9 c 0,2.54 2.08,4.62 4.63,4.62 2.54,0 4.62,-2.08 4.62,-4.62 0,-2.54 -2.08,-4.62 -4.62,-4.62 -2.55,0 -4.63,2.08 -4.63,4.62"
           style="fill:#00bfc4;fill-opacity:0.502;fill-rule:nonzero;stroke:#00bfc4;stroke-width:0.71;stroke-linecap:round;stroke-linejoin:round;stroke-miterlimit:10;stroke-dasharray:none;stroke-opacity:0.502"
           id="path132" />
        <path
           d="m 214.53,350.12 c 0,2.54 2.08,4.62 4.62,4.62 2.55,0 4.63,-2.08 4.63,-4.62 0,-2.54 -2.08,-4.62 -4.63,-4.62 -2.54,0 -4.62,2.08 -4.62,4.62"
           style="fill:#00bfc4;fill-opacity:0.502;fill-rule:nonzero;stroke:#00bfc4;stroke-width:0.71;stroke-linecap:round;stroke-linejoin:round;stroke-miterlimit:10;stroke-dasharray:none;stroke-opacity:0.502"
           id="path134" />
        <path
           d="m 369.73,112.48 c 0,2.54 2.08,4.62 4.62,4.62 2.54,0 4.62,-2.08 4.62,-4.62 0,-2.54 -2.08,-4.62 -4.62,-4.62 -2.54,0 -4.62,2.08 -4.62,4.62"
           style="fill:#00bfc4;fill-opacity:0.502;fill-rule:nonzero;stroke:#00bfc4;stroke-width:0.71;stroke-linecap:round;stroke-linejoin:round;stroke-miterlimit:10;stroke-dasharray:none;stroke-opacity:0.502"
           id="path136" />
        <path
           d="m 317.99,202.16 c 0,2.54 2.08,4.62 4.63,4.62 2.54,0 4.62,-2.08 4.62,-4.62 0,-2.54 -2.08,-4.62 -4.62,-4.62 -2.55,0 -4.63,2.08 -4.63,4.62"
           style="fill:#00bfc4;fill-opacity:0.502;fill-rule:nonzero;stroke:#00bfc4;stroke-width:0.71;stroke-linecap:round;stroke-linejoin:round;stroke-miterlimit:10;stroke-dasharray:none;stroke-opacity:0.502"
           id="path138" />
        <path
           d="m 266.26,291.83 c 0,2.54 2.08,4.62 4.63,4.62 2.54,0 4.62,-2.08 4.62,-4.62 0,-2.54 -2.08,-4.62 -4.62,-4.62 -2.55,0 -4.63,2.08 -4.63,4.62"
           style="fill:#00bfc4;fill-opacity:0.502;fill-rule:nonzero;stroke:#00bfc4;stroke-width:0.71;stroke-linecap:round;stroke-linejoin:round;stroke-miterlimit:10;stroke-dasharray:none;stroke-opacity:0.502"
           id="path140" />
        <path
           d="m 214.53,341.15 c 0,2.55 2.08,4.63 4.62,4.63 2.55,0 4.63,-2.08 4.63,-4.63 0,-2.54 -2.08,-4.62 -4.63,-4.62 -2.54,0 -4.62,2.08 -4.62,4.62"
           style="fill:#00bfc4;fill-opacity:0.502;fill-rule:nonzero;stroke:#00bfc4;stroke-width:0.71;stroke-linecap:round;stroke-linejoin:round;stroke-miterlimit:10;stroke-dasharray:none;stroke-opacity:0.502"
           id="path142" />
        <path
           d="m 162.8,426.34 c 0,2.55 2.08,4.63 4.62,4.63 2.54,0 4.62,-2.08 4.62,-4.63 0,-2.54 -2.08,-4.62 -4.62,-4.62 -2.54,0 -4.62,2.08 -4.62,4.62"
           style="fill:#00bfc4;fill-opacity:0.502;fill-rule:nonzero;stroke:#00bfc4;stroke-width:0.71;stroke-linecap:round;stroke-linejoin:round;stroke-miterlimit:10;stroke-dasharray:none;stroke-opacity:0.502"
           id="path144" />
        <path
           d="m 167.42,419.21 2.62,-3.77 2.62,-3.77 2.62,-3.77 2.62,-3.76 2.62,-3.77 2.62,-3.76 2.62,-3.76 2.62,-3.76 2.62,-3.76 2.62,-3.76 2.61,-3.75 2.62,-3.75 2.62,-3.75 2.62,-3.75 2.62,-3.74 2.62,-3.75 2.62,-3.74 2.62,-3.73 2.62,-3.74 2.62,-3.73 2.62,-3.72 2.62,-3.72 2.62,-3.72 2.62,-3.72 2.62,-3.71 2.61,-3.7 2.62,-3.71 2.62,-3.69 2.62,-3.69 2.62,-3.69 2.62,-3.68 2.62,-3.67 2.62,-3.67 2.62,-3.66 2.62,-3.65 2.62,-3.65 2.62,-3.64 2.62,-3.63 2.62,-3.63 2.62,-3.62 2.61,-3.61 2.62,-3.6 2.62,-3.59 2.62,-3.59 2.62,-3.58 2.62,-3.57 2.62,-3.57 2.62,-3.55 2.62,-3.55 2.62,-3.55 2.62,-3.53 2.62,-3.53 2.62,-3.52 2.62,-3.52 2.62,-3.51 2.61,-3.51 2.62,-3.49 2.62,-3.5 2.62,-3.49 2.62,-3.48 2.62,-3.48 2.62,-3.48 2.62,-3.47 2.62,-3.47 2.62,-3.46 2.62,-3.47 2.62,-3.45 2.62,-3.46 2.62,-3.45 2.61,-3.45 2.62,-3.45 2.62,-3.44 2.62,-3.44 2.62,-3.44 2.62,-3.44 2.62,-3.43 2.62,-3.44 2.62,-3.43 2.62,-3.43 v -18.74 l -2.62,3.77 -2.62,3.76 -2.62,3.75 -2.62,3.76 -2.62,3.76 -2.62,3.75 -2.62,3.75 -2.62,3.75 -2.62,3.74 -2.61,3.75 -2.62,3.74 -2.62,3.73 -2.62,3.74 -2.62,3.73 -2.62,3.73 -2.62,3.72 -2.62,3.72 -2.62,3.72 -2.62,3.71 -2.62,3.71 -2.62,3.7 -2.62,3.7 -2.62,3.69 -2.61,3.69 -2.62,3.68 -2.62,3.68 -2.62,3.67 -2.62,3.66 -2.62,3.65 -2.62,3.65 -2.62,3.65 -2.62,3.63 -2.62,3.63 -2.62,3.62 -2.62,3.61 -2.62,3.61 -2.62,3.6 -2.62,3.59 -2.61,3.58 -2.62,3.57 -2.62,3.57 -2.62,3.56 -2.62,3.55 -2.62,3.55 -2.62,3.54 -2.62,3.53 -2.62,3.52 -2.62,3.52 -2.62,3.51 -2.62,3.51 -2.62,3.5 -2.62,3.5 -2.62,3.49 -2.61,3.49 -2.62,3.48 -2.62,3.48 -2.62,3.47 -2.62,3.47 -2.62,3.46 -2.62,3.47 -2.62,3.45 -2.62,3.46 -2.62,3.45 -2.62,3.45 -2.62,3.45 -2.62,3.45 -2.62,3.44 -2.62,3.44 -2.61,3.44 -2.62,3.43 -2.62,3.44 -2.62,3.43 -2.62,3.43 -2.62,3.43 -2.62,3.43 -2.62,3.42 -2.62,3.43 -2.62,3.42 -2.62,3.43 z"
           style="fill:#69b3a2;fill-opacity:0.4;fill-rule:nonzero;stroke:none"
           id="path146" />
        <path
           d="m 167.42,408.88 2.62,-3.6 2.62,-3.6 2.62,-3.59 2.62,-3.6 2.62,-3.59 2.62,-3.6 2.62,-3.6 2.62,-3.59 2.62,-3.6 2.62,-3.59 2.61,-3.6 2.62,-3.6 2.62,-3.59 2.62,-3.6 2.62,-3.6 2.62,-3.59 2.62,-3.6 2.62,-3.59 2.62,-3.6 2.62,-3.6 2.62,-3.59 2.62,-3.6 2.62,-3.59 2.62,-3.6 2.62,-3.6 2.61,-3.59 2.62,-3.6 2.62,-3.59 2.62,-3.6 2.62,-3.6 2.62,-3.59 2.62,-3.6 2.62,-3.6 2.62,-3.59 2.62,-3.6 2.62,-3.59 2.62,-3.6 2.62,-3.6 2.62,-3.59 2.62,-3.6 2.61,-3.59 2.62,-3.6 2.62,-3.6 2.62,-3.59 2.62,-3.6 2.62,-3.6 2.62,-3.59 2.62,-3.6 2.62,-3.59 2.62,-3.6 2.62,-3.6 2.62,-3.59 2.62,-3.6 2.62,-3.59 2.62,-3.6 2.61,-3.6 2.62,-3.59 2.62,-3.6 2.62,-3.6 2.62,-3.59 2.62,-3.6 2.62,-3.59 2.62,-3.6 2.62,-3.6 2.62,-3.59 2.62,-3.6 2.62,-3.59 2.62,-3.6 2.62,-3.6 2.61,-3.59 2.62,-3.6 2.62,-3.6 2.62,-3.59 2.62,-3.6 2.62,-3.59 2.62,-3.6 2.62,-3.6 2.62,-3.59 2.62,-3.6"
           style="fill:none;stroke:#000000;stroke-width:2.13;stroke-linecap:butt;stroke-linejoin:round;stroke-miterlimit:10;stroke-dasharray:none;stroke-opacity:1"
           id="path148" />
        <path
           d="M 48.44,49.71 H 389.87 V 444.28 H 48.44 Z"
           style="fill:none;stroke:#333333;stroke-width:1.55;stroke-linecap:round;stroke-linejoin:round;stroke-miterlimit:10;stroke-dasharray:none;stroke-opacity:1"
           id="path150" />
      </g>
    </g>
    <g
       id="g874"
       transform="translate(-49.601954,241.22067)">
      <text
         xml:space="preserve"
         transform="matrix(1,0,0,-1,347.78,150.27)"
         style="font-variant:normal;font-weight:normal;font-size:13px;font-family:Helvetica;-inkscape-font-specification:Helvetica;writing-mode:lr-tb;fill:#000000;fill-opacity:1;fill-rule:nonzero;stroke:none"
         id="text878"><tspan
           x="0 7.2280002 14.456"
           y="0"
           sodipodi:role="line"
           id="tspan876">pbs R =0.99</tspan></text>
    </g>
    <g
       id="g152" />
    <g
       id="g154" />
    <g
       id="g156" />
    <g
       id="g158" />
    <g
       id="g160" />
    <g
       id="g162" />
    <g
       id="g164" />
    <g
       id="g166" />
    <g
       id="g168" />
    <g
       id="g170" />
    <g
       id="g172" />
    <g
       id="g174" />
    <g
       id="g176" />
    <g
       id="g178" />
    <g
       id="g180" />
    <g
       id="g182">
      <text
         xml:space="preserve"
         transform="matrix(1,0,0,-1,34.04,62.98)"
         style="font-variant:normal;font-weight:normal;font-size:13px;font-family:Helvetica;-inkscape-font-specification:Helvetica;writing-mode:lr-tb;fill:#4d4d4d;fill-opacity:1;fill-rule:nonzero;stroke:none"
         id="text186"><tspan
           x="0"
           y="0"
           id="tspan184">4</tspan></text>
      <text
         xml:space="preserve"
         transform="matrix(1,0,0,-1,34.04,152.65)"
         style="font-variant:normal;font-weight:normal;font-size:13px;font-family:Helvetica;-inkscape-font-specification:Helvetica;writing-mode:lr-tb;fill:#4d4d4d;fill-opacity:1;fill-rule:nonzero;stroke:none"
         id="text190"><tspan
           x="0"
           y="0"
           id="tspan188">6</tspan></text>
      <text
         xml:space="preserve"
         transform="matrix(1,0,0,-1,34.04,242.33)"
         style="font-variant:normal;font-weight:normal;font-size:13px;font-family:Helvetica;-inkscape-font-specification:Helvetica;writing-mode:lr-tb;fill:#4d4d4d;fill-opacity:1;fill-rule:nonzero;stroke:none"
         id="text194"><tspan
           x="0"
           y="0"
           id="tspan192">8</tspan></text>
      <text
         xml:space="preserve"
         transform="matrix(1,0,0,-1,26.81,332)"
         style="font-variant:normal;font-weight:normal;font-size:13px;font-family:Helvetica;-inkscape-font-specification:Helvetica;writing-mode:lr-tb;fill:#4d4d4d;fill-opacity:1;fill-rule:nonzero;stroke:none"
         id="text198"><tspan
           x="0 7.2280002"
           y="0"
           sodipodi:role="line"
           id="tspan196">10</tspan></text>
      <text
         xml:space="preserve"
         transform="matrix(1,0,0,-1,26.81,421.68)"
         style="font-variant:normal;font-weight:normal;font-size:13px;font-family:Helvetica;-inkscape-font-specification:Helvetica;writing-mode:lr-tb;fill:#4d4d4d;fill-opacity:1;fill-rule:nonzero;stroke:none"
         id="text202"><tspan
           x="0 7.2280002"
           y="0"
           sodipodi:role="line"
           id="tspan200">12</tspan></text>
    </g>
    <g
       id="g204" />
    <g
       id="g206" />
    <g
       id="g208">
      <path
         d="m 44.45,67.65 h 3.99"
         style="fill:none;stroke:#333333;stroke-width:1.55;stroke-linecap:butt;stroke-linejoin:round;stroke-miterlimit:10;stroke-dasharray:none;stroke-opacity:1"
         id="path210" />
      <path
         d="m 44.45,157.32 h 3.99"
         style="fill:none;stroke:#333333;stroke-width:1.55;stroke-linecap:butt;stroke-linejoin:round;stroke-miterlimit:10;stroke-dasharray:none;stroke-opacity:1"
         id="path212" />
      <path
         d="m 44.45,247 h 3.99"
         style="fill:none;stroke:#333333;stroke-width:1.55;stroke-linecap:butt;stroke-linejoin:round;stroke-miterlimit:10;stroke-dasharray:none;stroke-opacity:1"
         id="path214" />
      <path
         d="m 44.45,336.67 h 3.99"
         style="fill:none;stroke:#333333;stroke-width:1.55;stroke-linecap:butt;stroke-linejoin:round;stroke-miterlimit:10;stroke-dasharray:none;stroke-opacity:1"
         id="path216" />
      <path
         d="m 44.45,426.34 h 3.99"
         style="fill:none;stroke:#333333;stroke-width:1.55;stroke-linecap:butt;stroke-linejoin:round;stroke-miterlimit:10;stroke-dasharray:none;stroke-opacity:1"
         id="path218" />
    </g>
    <g
       id="g220" />
    <g
       id="g222" />
    <g
       id="g224" />
    <g
       id="g226" />
    <g
       id="g228" />
    <g
       id="g230" />
    <g
       id="g232" />
    <g
       id="g234" />
    <g
       id="g236" />
    <g
       id="g238" />
    <g
       id="g240">
      <path
         d="m 63.96,45.73 v 3.98"
         style="fill:none;stroke:#333333;stroke-width:1.55;stroke-linecap:butt;stroke-linejoin:round;stroke-miterlimit:10;stroke-dasharray:none;stroke-opacity:1"
         id="path242" />
      <path
         d="m 115.69,45.73 v 3.98"
         style="fill:none;stroke:#333333;stroke-width:1.55;stroke-linecap:butt;stroke-linejoin:round;stroke-miterlimit:10;stroke-dasharray:none;stroke-opacity:1"
         id="path244" />
      <path
         d="m 167.42,45.73 v 3.98"
         style="fill:none;stroke:#333333;stroke-width:1.55;stroke-linecap:butt;stroke-linejoin:round;stroke-miterlimit:10;stroke-dasharray:none;stroke-opacity:1"
         id="path246" />
      <path
         d="m 219.15,45.73 v 3.98"
         style="fill:none;stroke:#333333;stroke-width:1.55;stroke-linecap:butt;stroke-linejoin:round;stroke-miterlimit:10;stroke-dasharray:none;stroke-opacity:1"
         id="path248" />
      <path
         d="m 270.89,45.73 v 3.98"
         style="fill:none;stroke:#333333;stroke-width:1.55;stroke-linecap:butt;stroke-linejoin:round;stroke-miterlimit:10;stroke-dasharray:none;stroke-opacity:1"
         id="path250" />
      <path
         d="m 322.62,45.73 v 3.98"
         style="fill:none;stroke:#333333;stroke-width:1.55;stroke-linecap:butt;stroke-linejoin:round;stroke-miterlimit:10;stroke-dasharray:none;stroke-opacity:1"
         id="path252" />
      <path
         d="m 374.35,45.73 v 3.98"
         style="fill:none;stroke:#333333;stroke-width:1.55;stroke-linecap:butt;stroke-linejoin:round;stroke-miterlimit:10;stroke-dasharray:none;stroke-opacity:1"
         id="path254" />
    </g>
    <g
       id="g256" />
    <g
       id="g258">
      <text
         xml:space="preserve"
         transform="matrix(1,0,0,-1,54.23,29.75)"
         style="font-variant:normal;font-weight:normal;font-size:13px;font-family:Helvetica;-inkscape-font-specification:Helvetica;writing-mode:lr-tb;fill:#4d4d4d;fill-opacity:1;fill-rule:nonzero;stroke:none"
         id="text262"><tspan
           x="0 7.2280002"
           y="0"
           sodipodi:role="line"
           id="tspan260">10</tspan></text>
      <text
         xml:space="preserve"
         transform="matrix(1,0,0,-1,68.68,36.21)"
         style="font-variant:normal;font-weight:normal;font-size:9px;font-family:Helvetica;-inkscape-font-specification:Helvetica;writing-mode:lr-tb;fill:#4d4d4d;fill-opacity:1;fill-rule:nonzero;stroke:none"
         id="text266"><tspan
           x="0"
           y="0"
           id="tspan264">2</tspan></text>
      <text
         xml:space="preserve"
         transform="matrix(1,0,0,-1,105.96,29.75)"
         style="font-variant:normal;font-weight:normal;font-size:13px;font-family:Helvetica;-inkscape-font-specification:Helvetica;writing-mode:lr-tb;fill:#4d4d4d;fill-opacity:1;fill-rule:nonzero;stroke:none"
         id="text270"><tspan
           x="0 7.2280002"
           y="0"
           sodipodi:role="line"
           id="tspan268">10</tspan></text>
      <text
         xml:space="preserve"
         transform="matrix(1,0,0,-1,120.42,36.21)"
         style="font-variant:normal;font-weight:normal;font-size:9px;font-family:Helvetica;-inkscape-font-specification:Helvetica;writing-mode:lr-tb;fill:#4d4d4d;fill-opacity:1;fill-rule:nonzero;stroke:none"
         id="text274"><tspan
           x="0"
           y="0"
           id="tspan272">3</tspan></text>
      <text
         xml:space="preserve"
         transform="matrix(1,0,0,-1,157.69,29.75)"
         style="font-variant:normal;font-weight:normal;font-size:13px;font-family:Helvetica;-inkscape-font-specification:Helvetica;writing-mode:lr-tb;fill:#4d4d4d;fill-opacity:1;fill-rule:nonzero;stroke:none"
         id="text278"><tspan
           x="0 7.2280002"
           y="0"
           sodipodi:role="line"
           id="tspan276">10</tspan></text>
      <text
         xml:space="preserve"
         transform="matrix(1,0,0,-1,172.15,36.21)"
         style="font-variant:normal;font-weight:normal;font-size:9px;font-family:Helvetica;-inkscape-font-specification:Helvetica;writing-mode:lr-tb;fill:#4d4d4d;fill-opacity:1;fill-rule:nonzero;stroke:none"
         id="text282"><tspan
           x="0"
           y="0"
           id="tspan280">4</tspan></text>
      <text
         xml:space="preserve"
         transform="matrix(1,0,0,-1,209.42,29.89)"
         style="font-variant:normal;font-weight:normal;font-size:13px;font-family:Helvetica;-inkscape-font-specification:Helvetica;writing-mode:lr-tb;fill:#4d4d4d;fill-opacity:1;fill-rule:nonzero;stroke:none"
         id="text286"><tspan
           x="0 7.2280002"
           y="0"
           sodipodi:role="line"
           id="tspan284">10</tspan></text>
      <text
         xml:space="preserve"
         transform="matrix(1,0,0,-1,223.88,36.35)"
         style="font-variant:normal;font-weight:normal;font-size:9px;font-family:Helvetica;-inkscape-font-specification:Helvetica;writing-mode:lr-tb;fill:#4d4d4d;fill-opacity:1;fill-rule:nonzero;stroke:none"
         id="text290"><tspan
           x="0"
           y="0"
           id="tspan288">5</tspan></text>
      <text
         xml:space="preserve"
         transform="matrix(1,0,0,-1,261.16,29.75)"
         style="font-variant:normal;font-weight:normal;font-size:13px;font-family:Helvetica;-inkscape-font-specification:Helvetica;writing-mode:lr-tb;fill:#4d4d4d;fill-opacity:1;fill-rule:nonzero;stroke:none"
         id="text294"><tspan
           x="0 7.2280002"
           y="0"
           sodipodi:role="line"
           id="tspan292">10</tspan></text>
      <text
         xml:space="preserve"
         transform="matrix(1,0,0,-1,275.61,36.21)"
         style="font-variant:normal;font-weight:normal;font-size:9px;font-family:Helvetica;-inkscape-font-specification:Helvetica;writing-mode:lr-tb;fill:#4d4d4d;fill-opacity:1;fill-rule:nonzero;stroke:none"
         id="text298"><tspan
           x="0"
           y="0"
           id="tspan296">6</tspan></text>
      <text
         xml:space="preserve"
         transform="matrix(1,0,0,-1,312.89,29.89)"
         style="font-variant:normal;font-weight:normal;font-size:13px;font-family:Helvetica;-inkscape-font-specification:Helvetica;writing-mode:lr-tb;fill:#4d4d4d;fill-opacity:1;fill-rule:nonzero;stroke:none"
         id="text302"><tspan
           x="0 7.2280002"
           y="0"
           sodipodi:role="line"
           id="tspan300">10</tspan></text>
      <text
         xml:space="preserve"
         transform="matrix(1,0,0,-1,327.34,36.35)"
         style="font-variant:normal;font-weight:normal;font-size:9px;font-family:Helvetica;-inkscape-font-specification:Helvetica;writing-mode:lr-tb;fill:#4d4d4d;fill-opacity:1;fill-rule:nonzero;stroke:none"
         id="text306"><tspan
           x="0"
           y="0"
           id="tspan304">7</tspan></text>
      <text
         xml:space="preserve"
         transform="matrix(1,0,0,-1,364.62,29.75)"
         style="font-variant:normal;font-weight:normal;font-size:13px;font-family:Helvetica;-inkscape-font-specification:Helvetica;writing-mode:lr-tb;fill:#4d4d4d;fill-opacity:1;fill-rule:nonzero;stroke:none"
         id="text310"><tspan
           x="0 7.2280002"
           y="0"
           sodipodi:role="line"
           id="tspan308">10</tspan></text>
      <text
         xml:space="preserve"
         transform="matrix(1,0,0,-1,379.07,36.21)"
         style="font-variant:normal;font-weight:normal;font-size:9px;font-family:Helvetica;-inkscape-font-specification:Helvetica;writing-mode:lr-tb;fill:#4d4d4d;fill-opacity:1;fill-rule:nonzero;stroke:none"
         id="text314"><tspan
           x="0"
           y="0"
           id="tspan312">8</tspan></text>
    </g>
    <g
       id="g316" />
    <g
       id="g318" />
    <g
       id="g320" />
    <g
       id="g322" />
    <g
       id="g324" />
    <g
       id="g326" />
    <g
       id="g328" />
    <g
       id="g330">
      <text
         xml:space="preserve"
         transform="matrix(1,0,0,-1,154.7,11.34)"
         style="font-variant:normal;font-weight:normal;font-size:16px;font-family:Helvetica;-inkscape-font-specification:Helvetica;writing-mode:lr-tb;fill:#000000;fill-opacity:1;fill-rule:nonzero;stroke:none"
         id="text334"><tspan
           x="0 4.448 13.344 22.24 30.24 39.136002 42.688 51.584 64.912003 69.360001 80.912003 90.688004 102.24 106.688 120.016"
           y="0"
           sodipodi:role="line"
           id="tspan332">Inoculum CFU/mL</tspan></text>
    </g>
    <g
       id="g336" />
    <g
       id="g338" />
    <g
       id="g340">
      <text
         xml:space="preserve"
         transform="matrix(0,1,1,0,19.46,214.55)"
         style="font-variant:normal;font-weight:normal;font-size:16px;font-family:Helvetica;-inkscape-font-specification:Helvetica;writing-mode:lr-tb;fill:#000000;fill-opacity:1;fill-rule:nonzero;stroke:none"
         id="text344"><tspan
           x="0 9.776 18.672001 27.568001 35.568001 40.015999 45.344002 54.240002 59.568001"
           y="0"
           sodipodi:role="line"
           id="tspan342">Tpos (hr)</tspan></text>
    </g>
    <g
       id="g346" />
    <g
       id="g348" />
    <g
       id="g350" />
    <g
       id="g352" />
    <g
       id="g354" />
    <g
       id="g356" />
    <g
       id="g358" />
    <g
       id="g360" />
    <g
       id="g366" />
    <g
       id="g368" />
    <g
       id="g370" />
    <g
       id="g372"
       transform="translate(-346.56306,-155.02324)">
      <text
         xml:space="preserve"
         transform="matrix(1,0,0,-1,413.78,298.49)"
         style="font-variant:normal;font-weight:normal;font-size:16px;font-family:Helvetica;-inkscape-font-specification:Helvetica;writing-mode:lr-tb;fill:#000000;fill-opacity:1;fill-rule:nonzero;stroke:none"
         id="text376"><tspan
           x="0 3.552 11.552 20.448 24 32.896 37.344002 46.240002"
           y="0"
           sodipodi:role="line"
           id="tspan374">isolates</tspan></text>
    </g>
    <g
       id="g378" />
    <g
       id="g380" />
    <g
       id="g382" />
    <g
       id="g388" />
    <g
       id="g390"
       transform="translate(-351.38601,-146.75533)">
      <path
         d="m 417.8,280.22 c 0,2.54 2.08,4.62 4.62,4.62 2.54,0 4.62,-2.08 4.62,-4.62 0,-2.55 -2.08,-4.63 -4.62,-4.63 -2.54,0 -4.62,2.08 -4.62,4.63"
         style="fill:#f8766d;fill-opacity:0.502;fill-rule:nonzero;stroke:#f8766d;stroke-width:0.71;stroke-linecap:round;stroke-linejoin:round;stroke-miterlimit:10;stroke-dasharray:none;stroke-opacity:0.502"
         id="path392" />
    </g>
    <g
       id="g394" />
    <g
       id="g400" />
    <g
       id="g402"
       transform="translate(-351.38601,-146.75533)">
      <path
         d="m 417.8,262.94 c 0,2.54 2.08,4.62 4.62,4.62 2.54,0 4.62,-2.08 4.62,-4.62 0,-2.55 -2.08,-4.63 -4.62,-4.63 -2.54,0 -4.62,2.08 -4.62,4.63"
         style="fill:#00bfc4;fill-opacity:0.502;fill-rule:nonzero;stroke:#00bfc4;stroke-width:0.71;stroke-linecap:round;stroke-linejoin:round;stroke-miterlimit:10;stroke-dasharray:none;stroke-opacity:0.502"
         id="path404" />
    </g>
    <g
       id="g406" />
    <g
       id="g408" />
    <g
       id="g410" />
    <g
       id="g412"
       transform="translate(-351.38601,-146.75533)">
      <text
         xml:space="preserve"
         transform="matrix(1,0,0,-1,439.03,275.55)"
         style="font-variant:normal;font-weight:normal;font-size:13px;font-family:Helvetica;-inkscape-font-specification:Helvetica;writing-mode:lr-tb;fill:#000000;fill-opacity:1;fill-rule:nonzero;stroke:none"
         id="text416"><tspan
           x="0"
           y="0"
           sodipodi:role="line"
           id="tspan414">Paeruginosa_ATCC XXXX</tspan></text>
    </g>
    <g
       id="g418" />
    <g
       id="g420" />
    <g
       id="g422" />
    <g
       id="g424" />
    <g
       id="g426" />
    <g
       id="g428"
       transform="translate(-351.38601,-146.75533)">
      <text
         xml:space="preserve"
         transform="matrix(1,0,0,-1,439.03,258.27)"
         style="font-variant:normal;font-weight:normal;font-size:13px;font-family:Helvetica;-inkscape-font-specification:Helvetica;writing-mode:lr-tb;fill:#000000;fill-opacity:1;fill-rule:nonzero;stroke:none"
         id="text432"><tspan
           x="0"
           y="0"
           sodipodi:role="line"
           id="tspan430">Paeruginosa_F</tspan></text>
    </g>
    <g
       id="g434" />
    <g
       id="g436" />
    <g
       id="g438" />
    <g
       id="g440" />
    <g
       id="g442" />
    <g
       id="g444" />
    <g
       id="g446">
      <path
         d="m 405.81,174.37 h 63.09 v 56.01 h -63.09 z"
         style="fill:#ffffff;fill-opacity:1;fill-rule:nonzero;stroke:none"
         id="path448" />
    </g>
    <g
       id="g450" />
    <g
       id="g452" />
    <g
       id="g454" />
    <g
       id="g456"
       transform="translate(-141.24339,203.25269)">
      <text
         xml:space="preserve"
         transform="matrix(1,0,0,-1,413.78,209.26)"
         style="font-variant:normal;font-weight:normal;font-size:16px;font-family:Helvetica;-inkscape-font-specification:Helvetica;writing-mode:lr-tb;fill:#000000;fill-opacity:1;fill-rule:nonzero;stroke:none"
         id="text460"><tspan
           x="0 8.8959999 12.448 16 24.896 33.792 42.688"
           y="0"
           sodipodi:role="line"
           id="tspan458">diluent</tspan></text>
    </g>
    <g
       id="g462" />
    <g
       id="g464" />
    <g
       id="g466" />
    <g
       id="g468"
       transform="translate(-166.04711,201.18571)">
      <path
         d="m 413.78,182.34 h 17.28 v 17.28 h -17.28 z"
         style="fill:#ffffff;fill-opacity:1;fill-rule:nonzero;stroke:none"
         id="path470" />
    </g>
    <g
       id="g472" />
    <g
       id="g474"
       transform="translate(-140.5544,203.94168)">
      <path
         d="m 413.78,182.34 h 17.28 v 17.28 h -17.28 z"
         style="fill:#69b3a2;fill-opacity:0.4;fill-rule:nonzero;stroke:none"
         id="path476" />
      <path
         d="m 415.51,190.98 h 13.82"
         style="fill:none;stroke:#000000;stroke-width:2.13;stroke-linecap:butt;stroke-linejoin:round;stroke-miterlimit:10;stroke-dasharray:none;stroke-opacity:1"
         id="path478" />
    </g>
    <g
       id="g480" />
    <g
       id="g482" />
    <g
       id="g484" />
    <g
       id="g492" />
    <g
       id="g494" />
    <g
       id="g496" />
    <g
       id="g498" />
    <g
       id="g500" />
    <g
       id="g502" />
    <g
       id="g504" />
    <g
       id="g506" />
    <g
       id="g508" />
    <g
       id="g510" />
    <g
       id="g512" />
    <g
       id="g514" />
    <g
       id="g516" />
    <g
       id="g518" />
    <g
       id="g520" />
    <g
       id="g522" />
  </g>
</svg>
